<svg xmlns="http://www.w3.org/2000/svg" width="900" height="1095" viewBox="-30 -30 90 109.5" font-family="Palatino, Georgia, Times New Roman, serif" font-weight="400" fill="black">
  <rect x="-30" y="-30" width="90" height="109.5" fill="white" />
  <defs><clipPath id="plan-grid"><path d="M0 0h30v30h-30z M-20 0h20v20h-20z M10 -20h20v20h-20z M30 0h20v30h-20z" /></clipPath></defs>
  <g class="grid" clip-path="url(#plan-grid)" stroke="black" opacity="0.23" stroke-width="0.125">
    <line x1="-20" y1="-20" x2="-20" y2="30" />
    <line x1="-15" y1="-20" x2="-15" y2="30" />
    <line x1="-10" y1="-20" x2="-10" y2="30" />
    <line x1="-5" y1="-20" x2="-5" y2="30" />
    <line x1="0" y1="-20" x2="0" y2="30" />
    <line x1="5" y1="-20" x2="5" y2="30" />
    <line x1="10" y1="-20" x2="10" y2="30" />
    <line x1="15" y1="-20" x2="15" y2="30" />
    <line x1="20" y1="-20" x2="20" y2="30" />
    <line x1="25" y1="-20" x2="25" y2="30" />
    <line x1="30" y1="-20" x2="30" y2="30" />
    <line x1="35" y1="-20" x2="35" y2="30" />
    <line x1="40" y1="-20" x2="40" y2="30" />
    <line x1="45" y1="-20" x2="45" y2="30" />
    <line x1="50" y1="-20" x2="50" y2="30" />
    <line x1="-20" y1="-20" x2="50" y2="-20" />
    <line x1="-20" y1="-15" x2="50" y2="-15" />
    <line x1="-20" y1="-10" x2="50" y2="-10" />
    <line x1="-20" y1="-5" x2="50" y2="-5" />
    <line x1="-20" y1="0" x2="50" y2="0" />
    <line x1="-20" y1="5" x2="50" y2="5" />
    <line x1="-20" y1="10" x2="50" y2="10" />
    <line x1="-20" y1="15" x2="50" y2="15" />
    <line x1="-20" y1="20" x2="50" y2="20" />
    <line x1="-20" y1="25" x2="50" y2="25" />
    <line x1="-20" y1="30" x2="50" y2="30" />
  </g>
  <line class="wall exterior" x1="-20" y1="0" x2="-20" y2="20" stroke="black" stroke-width="0.8" stroke-linecap="square" />
  <line class="wall exterior" x1="-20" y1="0" x2="0" y2="0" stroke="black" stroke-width="0.8" stroke-linecap="square" />
  <line class="wall exterior" x1="-20" y1="20" x2="0" y2="20" stroke="black" stroke-width="0.8" stroke-linecap="square" />
  <line class="wall exterior" x1="0" y1="0" x2="0" y2="20" stroke="black" stroke-width="0.8" stroke-linecap="square" />
  <line class="wall exterior" x1="10" y1="-20" x2="10" y2="0" stroke="black" stroke-width="0.8" stroke-linecap="square" />
  <line class="wall exterior" x1="10" y1="-20" x2="30" y2="-20" stroke="black" stroke-width="0.8" stroke-linecap="square" />
  <line class="wall exterior" x1="10" y1="0" x2="30" y2="0" stroke="black" stroke-width="0.8" stroke-linecap="square" />
  <line class="wall exterior" x1="30" y1="-20" x2="30" y2="0" stroke="black" stroke-width="0.8" stroke-linecap="square" />
  <text data-room="courtyard" x="15" y="15" text-anchor="middle" dominant-baseline="central" font-size="18" fill="#333333">1</text>
  <text data-room="hall" x="-10" y="10" text-anchor="middle" dominant-baseline="central" font-size="12" fill="#333333">2</text>
  <text data-room="lodge" x="20" y="-10" text-anchor="middle" dominant-baseline="central" font-size="12" fill="#333333">3</text>
  <text data-room="yard" x="40" y="15" text-anchor="middle" dominant-baseline="central" font-size="12" fill="#333333">4</text>
  <line class="divider" x1="0" y1="0" x2="10" y2="0" stroke="black" stroke-width="0.25" stroke-dasharray="1.5 1" />
  <line class="divider" x1="0" y1="20" x2="0" y2="30" stroke="black" stroke-width="0.25" stroke-dasharray="1.5 1" />
  <line class="divider" x1="30" y1="0" x2="30" y2="30" stroke="black" stroke-width="0.25" stroke-dasharray="1.5 1" />
  <line class="divider" x1="30" y1="0" x2="50" y2="0" stroke="black" stroke-width="0.25" stroke-dasharray="1.5 1" />
  <line class="door" x1="0" y1="5" x2="0" y2="10" stroke="black" stroke-width="1.5" />
  <line class="door" x1="15" y1="0" x2="20" y2="0" stroke="black" stroke-width="1.5" />
  <g class="scale" font-size="5" fill="#333333">
    <text x="3.765" y="39">0</text>
    <text x="12.438" y="39">10</text>
    <text x="20.206" y="39">20 ft</text>
    <text x="2.273" y="48">5-ft squares</text>
    <rect x="5" y="40.5" width="10" height="1.5" fill="black" stroke="black" stroke-width="0.2" />
    <rect x="15" y="40.5" width="10" height="1.5" fill="white" stroke="black" stroke-width="0.2" />
  </g>
  <g class="key" font-size="5" fill="#333333"><text x="-10.392" y="60">1</text>
    <text x="-6.486" y="60">Courtyard</text>
  </g>
  <g class="key" font-size="5" fill="#333333"><text x="-10.644" y="68">2</text>
    <text x="-6.433" y="68">Hall</text>
  </g>
  <g class="key" font-size="5" fill="#333333"><text x="22.499" y="60">3</text>
    <text x="26.716" y="60">Lodge</text>
  </g>
  <g class="key" font-size="5" fill="#333333"><text x="22.443" y="68">4</text>
    <text x="26.75" y="68">Yard</text>
  </g>
</svg>