<svg xmlns="http://www.w3.org/2000/svg" width="740" height="1272" viewBox="-19.5 -10 74 127.2">
  <rect x="-19.5" y="-10" width="74" height="127.2" fill="white" />
  <g stroke="#bbb" stroke-width="0.15">
    <line x1="-5" y1="0" x2="-5" y2="50" />
    <line x1="0" y1="0" x2="0" y2="50" />
    <line x1="5" y1="0" x2="5" y2="50" />
    <line x1="10" y1="0" x2="10" y2="50" />
    <line x1="15" y1="0" x2="15" y2="50" />
    <line x1="20" y1="0" x2="20" y2="50" />
    <line x1="25" y1="0" x2="25" y2="50" />
    <line x1="30" y1="0" x2="30" y2="50" />
    <line x1="35" y1="0" x2="35" y2="50" />
    <line x1="40" y1="0" x2="40" y2="50" />
    <line x1="-5" y1="0" x2="40" y2="0" />
    <line x1="-5" y1="5" x2="40" y2="5" />
    <line x1="-5" y1="10" x2="40" y2="10" />
    <line x1="-5" y1="15" x2="40" y2="15" />
    <line x1="-5" y1="20" x2="40" y2="20" />
    <line x1="-5" y1="25" x2="40" y2="25" />
    <line x1="-5" y1="30" x2="40" y2="30" />
    <line x1="-5" y1="35" x2="40" y2="35" />
    <line x1="-5" y1="40" x2="40" y2="40" />
    <line x1="-5" y1="45" x2="40" y2="45" />
    <line x1="-5" y1="50" x2="40" y2="50" />
  </g>
  <line data-room="hall" x1="0" y1="0" x2="0" y2="20" stroke="black" stroke-width="0.5" stroke-linecap="square" />
  <line data-room="hall" x1="0" y1="0" x2="20" y2="0" stroke="black" stroke-width="0.5" stroke-linecap="square" />
  <line data-room="hall" x1="0" y1="20" x2="5" y2="20" stroke="black" stroke-width="0.5" stroke-linecap="square" />
  <line data-room="hall" x1="15" y1="20" x2="20" y2="20" stroke="black" stroke-width="0.5" stroke-linecap="square" />
  <line data-room="hall" x1="20" y1="0" x2="20" y2="20" stroke="black" stroke-width="0.5" stroke-linecap="square" />
  <text data-room="hall" x="10" y="10" text-anchor="middle" dominant-baseline="central" font-size="12">H</text>
  <rect data-room="lodge" x="25" y="35" width="15" height="15" fill="none" stroke="black" stroke-width="0.5" />
  <text data-room="lodge" x="32.5" y="42.5" text-anchor="middle" dominant-baseline="central" font-size="9">L</text>
  <text data-room="terrace" x="10" y="27.5" text-anchor="middle" dominant-baseline="central" font-size="9">T</text>
  <text data-room="yard" x="32.5" y="27.5" text-anchor="middle" dominant-baseline="central" font-size="9">Y</text>
  <line class="divider" x1="25" y1="20" x2="25" y2="35" stroke="black" stroke-width="0.25" stroke-dasharray="1.5 1" />
  <line class="open" x1="5" y1="20" x2="15" y2="20" stroke="black" stroke-width="0.5" stroke-dasharray="0.01 1.5" stroke-linecap="round" />
  <line class="secret" x1="30" y1="35" x2="35" y2="35" stroke="black" stroke-width="1.5" />
  <text class="secret" x="32.5" y="35" text-anchor="middle" dominant-baseline="central" font-size="5" stroke="white" stroke-width="0.6" paint-order="stroke">S</text>
  <text class="scale" x="-9.5" y="69.2" font-size="6">1 square = 5 ft</text>
  <text class="key" x="-9.5" y="78.8" font-size="6">H  Hall</text>
  <text class="key" x="-9.5" y="88.4" font-size="6">L  Lodge</text>
  <text class="key" x="-9.5" y="98" font-size="6">T  Terrace</text>
  <text class="key" x="-9.5" y="107.6" font-size="6">Y  Yard</text>
</svg>