<svg xmlns="http://www.w3.org/2000/svg" width="520.069" height="1105" viewBox="-11.003 -10 52.007 110.5" font-family="Palatino, Georgia, Times New Roman, serif" font-weight="400" fill="black">
  <rect x="-11.003" y="-10" width="52.007" height="110.5" fill="white" />
  <defs><clipPath id="plan-grid"><path d="M0 40h30v10h-30z M0 0h10v40h-10z" /></clipPath></defs>
  <g class="grid" clip-path="url(#plan-grid)" stroke="#c4c4c4" stroke-width="0.125">
    <line x1="0" y1="0" x2="0" y2="50" />
    <line x1="5" y1="0" x2="5" y2="50" />
    <line x1="10" y1="0" x2="10" y2="50" />
    <line x1="15" y1="0" x2="15" y2="50" />
    <line x1="20" y1="0" x2="20" y2="50" />
    <line x1="25" y1="0" x2="25" y2="50" />
    <line x1="30" y1="0" x2="30" y2="50" />
    <line x1="0" y1="0" x2="30" y2="0" />
    <line x1="0" y1="5" x2="30" y2="5" />
    <line x1="0" y1="10" x2="30" y2="10" />
    <line x1="0" y1="15" x2="30" y2="15" />
    <line x1="0" y1="20" x2="30" y2="20" />
    <line x1="0" y1="25" x2="30" y2="25" />
    <line x1="0" y1="30" x2="30" y2="30" />
    <line x1="0" y1="35" x2="30" y2="35" />
    <line x1="0" y1="40" x2="30" y2="40" />
    <line x1="0" y1="45" x2="30" y2="45" />
    <line x1="0" y1="50" x2="30" y2="50" />
  </g>
  <line class="wall interior" x1="0" y1="40" x2="10" y2="40" stroke="black" stroke-width="0.5" stroke-linecap="square" />
  <line class="wall exterior" x1="0" y1="0" x2="0" y2="50" stroke="black" stroke-width="0.8" stroke-linecap="square" />
  <line class="wall exterior" x1="0" y1="0" x2="10" y2="0" stroke="black" stroke-width="0.8" stroke-linecap="square" />
  <line class="wall exterior" x1="0" y1="50" x2="30" y2="50" stroke="black" stroke-width="0.8" stroke-linecap="square" />
  <line class="wall exterior" x1="10" y1="0" x2="10" y2="40" stroke="black" stroke-width="0.8" stroke-linecap="square" />
  <line class="wall exterior" x1="10" y1="40" x2="30" y2="40" stroke="black" stroke-width="0.8" stroke-linecap="square" />
  <line class="wall exterior" x1="30" y1="40" x2="30" y2="50" stroke="black" stroke-width="0.8" stroke-linecap="square" />
  <text data-room="base" x="15" y="45" text-anchor="middle" dominant-baseline="central" font-size="6">B</text>
  <text data-room="tower" x="5" y="20" text-anchor="middle" dominant-baseline="central" font-size="4.286">12a</text>
  <line class="door" x1="0" y1="40" x2="5" y2="40" stroke="black" stroke-width="1.5" />
  <g class="scale" font-size="5">
    <text x="-0.652" y="65">1 square = 5 ft</text>
  </g>
  <g class="key" font-size="5"><text x="3.268" y="81">B</text>
    <text x="8.005" y="81">Base</text>
  </g>
  <g class="key" font-size="5"><text x="-1.308" y="89">12a</text>
    <text x="7.966" y="89">Tall Tower</text>
  </g>
</svg>