<svg xmlns="http://www.w3.org/2000/svg" width="1000" height="1055" viewBox="-10 -10 100 105.5" font-family="Palatino, Georgia, Times New Roman, serif" font-weight="400" fill="black">
  <rect x="-10" y="-10" width="100" height="105.5" fill="white" />
  <defs><clipPath id="plan-grid"><path d="M0 0h20v15h-20z M20 0h20v15h-20z M40 0h20v15h-20z M60 0h20v15h-20z M0 15h20v15h-20z M20 15h20v15h-20z M40 15h20v15h-20z M60 15h20v15h-20z" /></clipPath></defs>
  <g class="grid" clip-path="url(#plan-grid)" stroke="black" opacity="0.23" stroke-width="0.125">
    <line x1="0" y1="0" x2="0" y2="30" />
    <line x1="5" y1="0" x2="5" y2="30" />
    <line x1="10" y1="0" x2="10" y2="30" />
    <line x1="15" y1="0" x2="15" y2="30" />
    <line x1="20" y1="0" x2="20" y2="30" />
    <line x1="25" y1="0" x2="25" y2="30" />
    <line x1="30" y1="0" x2="30" y2="30" />
    <line x1="35" y1="0" x2="35" y2="30" />
    <line x1="40" y1="0" x2="40" y2="30" />
    <line x1="45" y1="0" x2="45" y2="30" />
    <line x1="50" y1="0" x2="50" y2="30" />
    <line x1="55" y1="0" x2="55" y2="30" />
    <line x1="60" y1="0" x2="60" y2="30" />
    <line x1="65" y1="0" x2="65" y2="30" />
    <line x1="70" y1="0" x2="70" y2="30" />
    <line x1="75" y1="0" x2="75" y2="30" />
    <line x1="80" y1="0" x2="80" y2="30" />
    <line x1="0" y1="0" x2="80" y2="0" />
    <line x1="0" y1="5" x2="80" y2="5" />
    <line x1="0" y1="10" x2="80" y2="10" />
    <line x1="0" y1="15" x2="80" y2="15" />
    <line x1="0" y1="20" x2="80" y2="20" />
    <line x1="0" y1="25" x2="80" y2="25" />
    <line x1="0" y1="30" x2="80" y2="30" />
  </g>
  <line class="wall interior" x1="0" y1="15" x2="80" y2="15" stroke="black" stroke-width="0.5" stroke-linecap="square" />
  <line class="wall interior" x1="20" y1="0" x2="20" y2="30" stroke="black" stroke-width="0.5" stroke-linecap="square" />
  <line class="wall interior" x1="40" y1="0" x2="40" y2="30" stroke="black" stroke-width="0.5" stroke-linecap="square" />
  <line class="wall interior" x1="60" y1="0" x2="60" y2="30" stroke="black" stroke-width="0.5" stroke-linecap="square" />
  <line class="wall exterior" x1="0" y1="0" x2="0" y2="30" stroke="black" stroke-width="0.8" stroke-linecap="square" />
  <line class="wall exterior" x1="0" y1="0" x2="80" y2="0" stroke="black" stroke-width="0.8" stroke-linecap="square" />
  <line class="wall exterior" x1="0" y1="30" x2="80" y2="30" stroke="black" stroke-width="0.8" stroke-linecap="square" />
  <line class="wall exterior" x1="80" y1="0" x2="80" y2="30" stroke="black" stroke-width="0.8" stroke-linecap="square" />
  <text data-room="r0" x="10" y="7.5" text-anchor="middle" dominant-baseline="central" font-size="9" fill="#333333">1</text>
  <text data-room="r1" x="30" y="7.5" text-anchor="middle" dominant-baseline="central" font-size="9" fill="#333333">2</text>
  <text data-room="r2" x="50" y="7.5" text-anchor="middle" dominant-baseline="central" font-size="9" fill="#333333">3</text>
  <text data-room="r3" x="70" y="7.5" text-anchor="middle" dominant-baseline="central" font-size="9" fill="#333333">4</text>
  <text data-room="r4" x="10" y="22.5" text-anchor="middle" dominant-baseline="central" font-size="9" fill="#333333">5</text>
  <text data-room="r5" x="30" y="22.5" text-anchor="middle" dominant-baseline="central" font-size="9" fill="#333333">6</text>
  <text data-room="r6" x="50" y="22.5" text-anchor="middle" dominant-baseline="central" font-size="9" fill="#333333">7</text>
  <text data-room="r7" x="70" y="22.5" text-anchor="middle" dominant-baseline="central" font-size="9" fill="#333333">8</text>
  <line class="door" x1="5" y1="15" x2="10" y2="15" stroke="black" stroke-width="1.5" />
  <line class="door" x1="20" y1="5" x2="20" y2="10" stroke="black" stroke-width="1.5" />
  <line class="door" x1="20" y1="20" x2="20" y2="25" stroke="black" stroke-width="1.5" />
  <line class="door" x1="40" y1="5" x2="40" y2="10" stroke="black" stroke-width="1.5" />
  <line class="door" x1="40" y1="20" x2="40" y2="25" stroke="black" stroke-width="1.5" />
  <line class="door" x1="60" y1="5" x2="60" y2="10" stroke="black" stroke-width="1.5" />
  <line class="door" x1="60" y1="20" x2="60" y2="25" stroke="black" stroke-width="1.5" />
  <g class="scale" font-size="5" fill="#333333">
    <text x="28.765" y="39">0</text>
    <text x="37.438" y="39">10</text>
    <text x="45.206" y="39">20 ft</text>
    <text x="27.273" y="48">5-ft squares</text>
    <rect x="30" y="40.5" width="10" height="1.5" fill="black" stroke="black" stroke-width="0.2" />
    <rect x="40" y="40.5" width="10" height="1.5" fill="white" stroke="black" stroke-width="0.2" />
  </g>
  <g class="key" font-size="5" fill="#333333"><text x="11.528" y="60">1</text>
    <text x="15.452" y="60">Guardroom</text>
  </g>
  <g class="key" font-size="5" fill="#333333"><text x="11.276" y="68">2</text>
    <text x="15.523" y="68">Armory</text>
  </g>
  <g class="key" font-size="5" fill="#333333"><text x="11.301" y="76">3</text>
    <text x="15.452" y="76">Gallery</text>
  </g>
  <g class="key" font-size="5" fill="#333333"><text x="11.245" y="84">4</text>
    <text x="15.435" y="84">Chapel</text>
  </g>
  <g class="key" font-size="5" fill="#333333"><text x="47.435" y="60">5</text>
    <text x="51.645" y="60">Library</text>
  </g>
  <g class="key" font-size="5" fill="#333333"><text x="47.403" y="68">6</text>
    <text x="51.61" y="68">Kitchen</text>
  </g>
  <g class="key" font-size="5" fill="#333333"><text x="47.26" y="76">7</text>
    <text x="51.603" y="76">Pantry</text>
  </g>
  <g class="key" font-size="5" fill="#333333"><text x="47.421" y="84">8</text>
    <text x="51.684" y="84">Vault</text>
  </g>
</svg>