<svg xmlns="http://www.w3.org/2000/svg" width="506.946" height="815" viewBox="-10.347 -10 50.695 81.5" font-family="Palatino, Georgia, Times New Roman, serif" font-weight="400" fill="black">
  <rect x="-10.347" y="-10" width="50.695" height="81.5" fill="white" />
  <defs><clipPath id="plan-grid"><path d="M20 10h10v10h-10z M0 0h20v20h-20z M20 0h10v10h-10z" /></clipPath></defs>
  <g class="grid" clip-path="url(#plan-grid)" stroke="#c4c4c4" stroke-width="0.125">
    <line x1="0" y1="0" x2="0" y2="20" />
    <line x1="5" y1="0" x2="5" y2="20" />
    <line x1="10" y1="0" x2="10" y2="20" />
    <line x1="15" y1="0" x2="15" y2="20" />
    <line x1="20" y1="0" x2="20" y2="20" />
    <line x1="25" y1="0" x2="25" y2="20" />
    <line x1="30" y1="0" x2="30" y2="20" />
    <line x1="0" y1="0" x2="30" y2="0" />
    <line x1="0" y1="5" x2="30" y2="5" />
    <line x1="0" y1="10" x2="30" y2="10" />
    <line x1="0" y1="15" x2="30" y2="15" />
    <line x1="0" y1="20" x2="30" y2="20" />
  </g>
  <line class="wall interior" x1="20" y1="0" x2="20" y2="20" stroke="black" stroke-width="0.5" stroke-linecap="square" />
  <line class="wall interior" x1="20" y1="10" x2="30" y2="10" stroke="black" stroke-width="0.5" stroke-linecap="square" />
  <line class="wall exterior" x1="0" y1="0" x2="0" y2="20" stroke="black" stroke-width="0.8" stroke-linecap="square" />
  <line class="wall exterior" x1="0" y1="0" x2="30" y2="0" stroke="black" stroke-width="0.8" stroke-linecap="square" />
  <line class="wall exterior" x1="0" y1="20" x2="30" y2="20" stroke="black" stroke-width="0.8" stroke-linecap="square" />
  <line class="wall exterior" x1="30" y1="0" x2="30" y2="20" stroke="black" stroke-width="0.8" stroke-linecap="square" />
  <text data-room="r" x="25" y="15" text-anchor="middle" dominant-baseline="central" font-size="6">R</text>
  <text data-room="x" x="10" y="10" text-anchor="middle" dominant-baseline="central" font-size="12">X</text>
  <text data-room="y" x="25" y="5" text-anchor="middle" dominant-baseline="central" font-size="6">Y</text>
  <line class="door" x1="20" y1="0" x2="20" y2="5" stroke="black" stroke-width="1.5" />
  <line class="door" x1="20" y1="10" x2="20" y2="15" stroke="black" stroke-width="1.5" />
  <line class="door" x1="20" y1="10" x2="25" y2="10" stroke="black" stroke-width="1.5" />
  <g class="scale" font-size="5">
    <text x="-0.652" y="32">1 square = 5 ft</text>
  </g>
  <g class="key" font-size="5"><text x="3.454" y="44">R</text>
    <text x="8.659" y="44">Room R</text>
  </g>
  <g class="key" font-size="5"><text x="3.534" y="52">X</text>
    <text x="8.659" y="52">Room X</text>
  </g>
  <g class="key" font-size="5"><text x="3.53" y="60">Y</text>
    <text x="8.659" y="60">Room Y</text>
  </g>
</svg>