<svg xmlns="http://www.w3.org/2000/svg" width="740" height="980" viewBox="-17 -10 74 98">
  <rect x="-17" y="-10" width="74" height="98" fill="white" />
  <g stroke="#bbb" stroke-width="0.15">
    <line x1="0" y1="0" x2="0" y2="40" />
    <line x1="5" y1="0" x2="5" y2="40" />
    <line x1="10" y1="0" x2="10" y2="40" />
    <line x1="15" y1="0" x2="15" y2="40" />
    <line x1="20" y1="0" x2="20" y2="40" />
    <line x1="25" y1="0" x2="25" y2="40" />
    <line x1="30" y1="0" x2="30" y2="40" />
    <line x1="35" y1="0" x2="35" y2="40" />
    <line x1="40" y1="0" x2="40" y2="40" />
    <line x1="0" y1="0" x2="40" y2="0" />
    <line x1="0" y1="5" x2="40" y2="5" />
    <line x1="0" y1="10" x2="40" y2="10" />
    <line x1="0" y1="15" x2="40" y2="15" />
    <line x1="0" y1="20" x2="40" y2="20" />
    <line x1="0" y1="25" x2="40" y2="25" />
    <line x1="0" y1="30" x2="40" y2="30" />
    <line x1="0" y1="35" x2="40" y2="35" />
    <line x1="0" y1="40" x2="40" y2="40" />
  </g>
  <line data-room="porch" x1="20" y1="20" x2="20" y2="25" stroke="black" stroke-width="0.5" stroke-linecap="square" />
  <line data-room="porch" x1="20" y1="20" x2="40" y2="20" stroke="black" stroke-width="0.5" stroke-linecap="square" />
  <line data-room="porch" x1="20" y1="35" x2="20" y2="40" stroke="black" stroke-width="0.5" stroke-linecap="square" />
  <line data-room="porch" x1="20" y1="40" x2="40" y2="40" stroke="black" stroke-width="0.5" stroke-linecap="square" />
  <line data-room="porch" x1="40" y1="20" x2="40" y2="40" stroke="black" stroke-width="0.5" stroke-linecap="square" />
  <text data-room="porch" x="30" y="30" text-anchor="middle" dominant-baseline="central" font-size="12">P</text>
  <line x1="0" y1="0" x2="0" y2="20" stroke="black" stroke-width="0.5" stroke-linecap="square" />
  <line x1="0" y1="0" x2="20" y2="0" stroke="black" stroke-width="0.5" stroke-linecap="square" />
  <line x1="0" y1="20" x2="0" y2="40" stroke="black" stroke-width="0.5" stroke-linecap="square" />
  <line x1="0" y1="40" x2="20" y2="40" stroke="black" stroke-width="0.5" stroke-linecap="square" />
  <line x1="20" y1="0" x2="20" y2="20" stroke="black" stroke-width="0.5" stroke-linecap="square" />
  <line x1="20" y1="20" x2="20" y2="25" stroke="black" stroke-width="0.5" stroke-linecap="square" />
  <line x1="20" y1="35" x2="20" y2="40" stroke="black" stroke-width="0.5" stroke-linecap="square" />
  <text data-block="hall" x="10" y="10" text-anchor="middle" dominant-baseline="central" font-size="12">H</text>
  <line class="open" x1="20" y1="25" x2="20" y2="35" stroke="black" stroke-width="0.5" stroke-dasharray="1.5 1.5" />
  <text class="scale" x="-7" y="59.2" font-size="6">1 square = 5 ft</text>
  <text class="key" x="-7" y="68.8" font-size="6">H  Great Hall</text>
  <text class="key" x="-7" y="78.4" font-size="6">P  Porch</text>
</svg>