<svg xmlns="http://www.w3.org/2000/svg" width="800" height="780" viewBox="-10 -10 80 78">
  <rect x="-10" y="-10" width="80" height="78" fill="white" />
  <g stroke="#bbb" stroke-width="0.15">
    <line x1="0" y1="0" x2="0" y2="20" />
    <line x1="5" y1="0" x2="5" y2="20" />
    <line x1="10" y1="0" x2="10" y2="20" />
    <line x1="15" y1="0" x2="15" y2="20" />
    <line x1="20" y1="0" x2="20" y2="20" />
    <line x1="25" y1="0" x2="25" y2="20" />
    <line x1="30" y1="0" x2="30" y2="20" />
    <line x1="35" y1="0" x2="35" y2="20" />
    <line x1="40" y1="0" x2="40" y2="20" />
    <line x1="45" y1="0" x2="45" y2="20" />
    <line x1="50" y1="0" x2="50" y2="20" />
    <line x1="55" y1="0" x2="55" y2="20" />
    <line x1="60" y1="0" x2="60" y2="20" />
    <line x1="0" y1="0" x2="60" y2="0" />
    <line x1="0" y1="5" x2="60" y2="5" />
    <line x1="0" y1="10" x2="60" y2="10" />
    <line x1="0" y1="15" x2="60" y2="15" />
    <line x1="0" y1="20" x2="60" y2="20" />
  </g>
  <line data-room="dining" x1="30" y1="0" x2="60" y2="0" stroke="black" stroke-width="0.5" stroke-linecap="square" />
  <line data-room="dining" x1="30" y1="20" x2="60" y2="20" stroke="black" stroke-width="0.5" stroke-linecap="square" />
  <line data-room="dining" x1="60" y1="0" x2="60" y2="20" stroke="black" stroke-width="0.5" stroke-linecap="square" />
  <text data-room="dining" x="45" y="10" text-anchor="middle" dominant-baseline="central" font-size="12">2</text>
  <line data-room="kitchen" x1="0" y1="0" x2="0" y2="20" stroke="black" stroke-width="0.5" stroke-linecap="square" />
  <line data-room="kitchen" x1="0" y1="0" x2="30" y2="0" stroke="black" stroke-width="0.5" stroke-linecap="square" />
  <line data-room="kitchen" x1="0" y1="20" x2="30" y2="20" stroke="black" stroke-width="0.5" stroke-linecap="square" />
  <text data-room="kitchen" x="15" y="10" text-anchor="middle" dominant-baseline="central" font-size="12">1</text>
  <line class="open" x1="30" y1="0" x2="30" y2="20" stroke="black" stroke-width="0.5" stroke-dasharray="0.01 1.5" stroke-linecap="round" />
  <text class="scale" x="3" y="39.2" font-size="6">1 square = 5 ft</text>
  <text class="key" x="3" y="48.8" font-size="6">1  Kitchen</text>
  <text class="key" x="3" y="58.4" font-size="6">2  Dining Room</text>
</svg>