<svg xmlns="http://www.w3.org/2000/svg" width="494.221" height="795" viewBox="-22.211 -10 49.422 79.5" font-family="Palatino, Georgia, Times New Roman, serif" font-weight="400" fill="black">
  <rect x="-22.211" y="-10" width="49.422" height="79.5" fill="white" />
  <defs><clipPath id="plan-grid"><path d="M0 0h10v10h-10z M-5 10h10v10h-10z" /></clipPath></defs>
  <g class="grid" clip-path="url(#plan-grid)" stroke="#c4c4c4" stroke-width="0.125">
    <line x1="-5" y1="0" x2="-5" y2="20" />
    <line x1="0" y1="0" x2="0" y2="20" />
    <line x1="5" y1="0" x2="5" y2="20" />
    <line x1="10" y1="0" x2="10" y2="20" />
    <line x1="-5" y1="0" x2="10" y2="0" />
    <line x1="-5" y1="5" x2="10" y2="5" />
    <line x1="-5" y1="10" x2="10" y2="10" />
    <line x1="-5" y1="15" x2="10" y2="15" />
    <line x1="-5" y1="20" x2="10" y2="20" />
  </g>
  <line class="wall interior" x1="0" y1="10" x2="5" y2="10" stroke="black" stroke-width="0.5" stroke-linecap="square" />
  <line class="wall exterior" x1="-5" y1="10" x2="-5" y2="20" stroke="black" stroke-width="0.8" stroke-linecap="square" />
  <line class="wall exterior" x1="-5" y1="10" x2="0" y2="10" stroke="black" stroke-width="0.8" stroke-linecap="square" />
  <line class="wall exterior" x1="-5" y1="20" x2="5" y2="20" stroke="black" stroke-width="0.8" stroke-linecap="square" />
  <line class="wall exterior" x1="0" y1="0" x2="0" y2="10" stroke="black" stroke-width="0.8" stroke-linecap="square" />
  <line class="wall exterior" x1="0" y1="0" x2="10" y2="0" stroke="black" stroke-width="0.8" stroke-linecap="square" />
  <line class="wall exterior" x1="5" y1="10" x2="5" y2="20" stroke="black" stroke-width="0.8" stroke-linecap="square" />
  <line class="wall exterior" x1="5" y1="10" x2="10" y2="10" stroke="black" stroke-width="0.8" stroke-linecap="square" />
  <line class="wall exterior" x1="10" y1="0" x2="10" y2="10" stroke="black" stroke-width="0.8" stroke-linecap="square" />
  <text data-room="a" x="5" y="5" text-anchor="middle" dominant-baseline="central" font-size="6" fill="#333333">A</text>
  <text data-room="b" x="0" y="15" text-anchor="middle" dominant-baseline="central" font-size="6" fill="#333333">B</text>
  <line class="door" x1="0" y1="10" x2="5" y2="10" stroke="black" stroke-width="1.5" />
  <g class="scale" font-size="5" fill="#333333">
    <text x="-8.735" y="29">0</text>
    <text x="-0.062" y="29">10</text>
    <text x="7.706" y="29">20 ft</text>
    <text x="-10.227" y="38">5-ft squares</text>
    <rect x="-7.5" y="30.5" width="10" height="1.5" fill="black" stroke="black" stroke-width="0.2" />
    <rect x="2.5" y="30.5" width="10" height="1.5" fill="white" stroke="black" stroke-width="0.2" />
  </g>
  <g class="key" font-size="5" fill="#333333"><text x="-9.49" y="50">A</text>
    <text x="-3.828" y="50">Room A</text>
  </g>
  <g class="key" font-size="5" fill="#333333"><text x="-8.521" y="58">B</text>
    <text x="-3.828" y="58">Room B</text>
  </g>
</svg>