<svg xmlns="http://www.w3.org/2000/svg" width="950" height="1272" viewBox="-20 -10 95 127.2">
  <rect x="-20" y="-10" width="95" height="127.2" fill="white" />
  <g stroke="#bbb" stroke-width="0.15">
    <line x1="-10" y1="0" x2="-10" y2="50" />
    <line x1="-5" y1="0" x2="-5" y2="50" />
    <line x1="0" y1="0" x2="0" y2="50" />
    <line x1="5" y1="0" x2="5" y2="50" />
    <line x1="10" y1="0" x2="10" y2="50" />
    <line x1="15" y1="0" x2="15" y2="50" />
    <line x1="20" y1="0" x2="20" y2="50" />
    <line x1="25" y1="0" x2="25" y2="50" />
    <line x1="30" y1="0" x2="30" y2="50" />
    <line x1="35" y1="0" x2="35" y2="50" />
    <line x1="40" y1="0" x2="40" y2="50" />
    <line x1="45" y1="0" x2="45" y2="50" />
    <line x1="50" y1="0" x2="50" y2="50" />
    <line x1="55" y1="0" x2="55" y2="50" />
    <line x1="60" y1="0" x2="60" y2="50" />
    <line x1="65" y1="0" x2="65" y2="50" />
    <line x1="-10" y1="0" x2="65" y2="0" />
    <line x1="-10" y1="5" x2="65" y2="5" />
    <line x1="-10" y1="10" x2="65" y2="10" />
    <line x1="-10" y1="15" x2="65" y2="15" />
    <line x1="-10" y1="20" x2="65" y2="20" />
    <line x1="-10" y1="25" x2="65" y2="25" />
    <line x1="-10" y1="30" x2="65" y2="30" />
    <line x1="-10" y1="35" x2="65" y2="35" />
    <line x1="-10" y1="40" x2="65" y2="40" />
    <line x1="-10" y1="45" x2="65" y2="45" />
    <line x1="-10" y1="50" x2="65" y2="50" />
  </g>
  <line class="wall interior" x1="50" y1="0" x2="50" y2="5" stroke="black" stroke-width="0.5" stroke-linecap="square" />
  <line class="wall interior" x1="50" y1="15" x2="50" y2="20" stroke="black" stroke-width="0.5" stroke-linecap="square" />
  <line class="wall exterior" x1="0" y1="0" x2="0" y2="15" stroke="black" stroke-width="0.8" stroke-linecap="square" />
  <line class="wall exterior" x1="0" y1="0" x2="10" y2="0" stroke="black" stroke-width="0.8" stroke-linecap="square" />
  <line class="wall exterior" x1="0" y1="20" x2="0" y2="30" stroke="black" stroke-width="0.8" stroke-linecap="square" />
  <line class="wall exterior" x1="0" y1="30" x2="5" y2="30" stroke="black" stroke-width="0.8" stroke-linecap="square" />
  <line class="wall exterior" x1="15" y1="30" x2="35" y2="30" stroke="black" stroke-width="0.8" stroke-linecap="square" />
  <line class="wall exterior" x1="20" y1="0" x2="65" y2="0" stroke="black" stroke-width="0.8" stroke-linecap="square" />
  <line class="wall exterior" x1="45" y1="30" x2="50" y2="30" stroke="black" stroke-width="0.8" stroke-linecap="square" />
  <line class="wall exterior" x1="50" y1="20" x2="50" y2="30" stroke="black" stroke-width="0.8" stroke-linecap="square" />
  <line class="wall exterior" x1="50" y1="20" x2="65" y2="20" stroke="black" stroke-width="0.8" stroke-linecap="square" />
  <line class="wall exterior" x1="65" y1="5" x2="65" y2="20" stroke="black" stroke-width="0.8" stroke-linecap="square" />
  <text data-room="porch" x="-5" y="25" text-anchor="middle" dominant-baseline="central" font-size="6">P</text>
  <text data-room="tower" x="57.5" y="10" text-anchor="middle" dominant-baseline="central" font-size="9">T</text>
  <text data-block="garden" x="15" y="40" text-anchor="middle" dominant-baseline="central" font-size="12">G</text>
  <text data-block="house" x="15" y="15" text-anchor="middle" dominant-baseline="central" font-size="18">H</text>
  <line class="divider" x1="-10" y1="15" x2="0" y2="15" stroke="black" stroke-width="0.25" stroke-dasharray="1.5 1" />
  <line class="divider" x1="-10" y1="35" x2="0" y2="35" stroke="black" stroke-width="0.25" stroke-dasharray="1.5 1" />
  <line class="divider" x1="0" y1="30" x2="0" y2="35" stroke="black" stroke-width="0.25" stroke-dasharray="1.5 1" />
  <line class="divider" x1="0" y1="35" x2="0" y2="50" stroke="black" stroke-width="0.25" stroke-dasharray="1.5 1" />
  <line class="divider" x1="50" y1="30" x2="50" y2="50" stroke="black" stroke-width="0.25" stroke-dasharray="1.5 1" />
  <line class="window-fill" x1="0" y1="15" x2="0" y2="20" stroke="white" stroke-width="0.5" />
  <line class="window" x1="-0.25" y1="15" x2="-0.25" y2="20" stroke="black" stroke-width="0.25" />
  <line class="window" x1="0.25" y1="15" x2="0.25" y2="20" stroke="black" stroke-width="0.25" />
  <line class="window-fill" x1="5" y1="30" x2="15" y2="30" stroke="white" stroke-width="0.5" />
  <line class="window" x1="5" y1="29.75" x2="15" y2="29.75" stroke="black" stroke-width="0.25" />
  <line class="window" x1="5" y1="30.25" x2="15" y2="30.25" stroke="black" stroke-width="0.25" />
  <line class="window-fill" x1="10" y1="0" x2="20" y2="0" stroke="white" stroke-width="0.5" />
  <line class="window" x1="10" y1="-0.25" x2="20" y2="-0.25" stroke="black" stroke-width="0.25" />
  <line class="window" x1="10" y1="0.25" x2="20" y2="0.25" stroke="black" stroke-width="0.25" />
  <line class="window-fill" x1="35" y1="30" x2="45" y2="30" stroke="white" stroke-width="0.5" />
  <line class="window" x1="35" y1="29.75" x2="45" y2="29.75" stroke="black" stroke-width="0.25" />
  <line class="window" x1="35" y1="30.25" x2="45" y2="30.25" stroke="black" stroke-width="0.25" />
  <line class="window-fill" x1="50" y1="5" x2="50" y2="15" stroke="white" stroke-width="0.5" />
  <line class="window" x1="49.75" y1="5" x2="49.75" y2="15" stroke="black" stroke-width="0.25" />
  <line class="window" x1="50.25" y1="5" x2="50.25" y2="15" stroke="black" stroke-width="0.25" />
  <line class="window-fill" x1="65" y1="0" x2="65" y2="5" stroke="white" stroke-width="0.5" />
  <line class="window" x1="64.75" y1="0" x2="64.75" y2="5" stroke="black" stroke-width="0.25" />
  <line class="window" x1="65.25" y1="0" x2="65.25" y2="5" stroke="black" stroke-width="0.25" />
  <line class="door" x1="50" y1="20" x2="65" y2="20" stroke="black" stroke-width="1.5" />
  <text class="scale" x="0.5" y="69.2" font-size="6">1 square = 5 ft</text>
  <text class="key" x="0.5" y="78.8" font-size="6">G  Garden</text>
  <text class="key" x="0.5" y="88.4" font-size="6">H  House</text>
  <text class="key" x="0.5" y="98" font-size="6">P  Porch</text>
  <text class="key" x="0.5" y="107.6" font-size="6">T  Tower</text>
</svg>