<svg xmlns="http://www.w3.org/2000/svg" width="600" height="735" viewBox="-10 -10 60 73.5" font-family="Palatino, Georgia, Times New Roman, serif" font-weight="400" fill="black">
  <rect x="-10" y="-10" width="60" height="73.5" fill="#e0e0e0" />
  <defs><clipPath id="plan-grid"><path d="M20 0h20v20h-20z M0 0h20v20h-20z" /></clipPath></defs>
  <g class="grid" clip-path="url(#plan-grid)" stroke="#c4c4c4" stroke-width="0.125">
    <line x1="0" y1="0" x2="0" y2="20" />
    <line x1="5" y1="0" x2="5" y2="20" />
    <line x1="10" y1="0" x2="10" y2="20" />
    <line x1="15" y1="0" x2="15" y2="20" />
    <line x1="20" y1="0" x2="20" y2="20" />
    <line x1="25" y1="0" x2="25" y2="20" />
    <line x1="30" y1="0" x2="30" y2="20" />
    <line x1="35" y1="0" x2="35" y2="20" />
    <line x1="40" y1="0" x2="40" y2="20" />
    <line x1="0" y1="0" x2="40" y2="0" />
    <line x1="0" y1="5" x2="40" y2="5" />
    <line x1="0" y1="10" x2="40" y2="10" />
    <line x1="0" y1="15" x2="40" y2="15" />
    <line x1="0" y1="20" x2="40" y2="20" />
  </g>
  <line class="wall interior" x1="20" y1="0" x2="20" y2="20" stroke="black" stroke-width="0.5" stroke-linecap="square" />
  <line class="wall exterior" x1="0" y1="0" x2="0" y2="20" stroke="black" stroke-width="0.8" stroke-linecap="square" />
  <line class="wall exterior" x1="0" y1="0" x2="40" y2="0" stroke="black" stroke-width="0.8" stroke-linecap="square" />
  <line class="wall exterior" x1="0" y1="20" x2="40" y2="20" stroke="black" stroke-width="0.8" stroke-linecap="square" />
  <line class="wall exterior" x1="40" y1="0" x2="40" y2="20" stroke="black" stroke-width="0.8" stroke-linecap="square" />
  <text data-room="a" x="30" y="10" text-anchor="middle" dominant-baseline="central" font-size="12">A</text>
  <text data-room="r" x="10" y="10" text-anchor="middle" dominant-baseline="central" font-size="12">R</text>
  <line class="door" x1="20" y1="5" x2="20" y2="10" stroke="black" stroke-width="1.5" />
  <line class="door" x1="20" y1="15" x2="20" y2="20" stroke="black" stroke-width="1.5" />
  <g class="scale" font-size="5">
    <text x="4.348" y="32">1 square = 5 ft</text>
  </g>
  <g class="key" font-size="5"><text x="8.01" y="44">A</text>
    <text x="13.672" y="44">Room A</text>
  </g>
  <g class="key" font-size="5"><text x="8.466" y="52">R</text>
    <text x="13.672" y="52">Root</text>
  </g>
</svg>