<svg xmlns="http://www.w3.org/2000/svg" width="507.915" height="875" viewBox="-15.396 -10 50.792 87.5" font-family="Palatino, Georgia, Times New Roman, serif" font-weight="400" fill="black">
  <rect x="-15.396" y="-10" width="50.792" height="87.5" fill="#e0e0e0" />
  <defs><clipPath id="plan-grid"><path d="M0 10h10v10h-10z M10 0h10v20h-10z M0 0h10v10h-10z" /></clipPath></defs>
  <g class="grid" clip-path="url(#plan-grid)" stroke="black" opacity="0.23" stroke-width="0.125">
    <line x1="0" y1="0" x2="0" y2="20" />
    <line x1="5" y1="0" x2="5" y2="20" />
    <line x1="10" y1="0" x2="10" y2="20" />
    <line x1="15" y1="0" x2="15" y2="20" />
    <line x1="20" y1="0" x2="20" y2="20" />
    <line x1="0" y1="0" x2="20" y2="0" />
    <line x1="0" y1="5" x2="20" y2="5" />
    <line x1="0" y1="10" x2="20" y2="10" />
    <line x1="0" y1="15" x2="20" y2="15" />
    <line x1="0" y1="20" x2="20" y2="20" />
  </g>
  <line class="wall interior" x1="0" y1="10" x2="10" y2="10" stroke="black" stroke-width="0.5" stroke-linecap="square" />
  <line class="wall interior" x1="10" y1="0" x2="10" y2="20" stroke="black" stroke-width="0.5" stroke-linecap="square" />
  <line class="wall exterior" x1="0" y1="0" x2="0" y2="20" stroke="black" stroke-width="0.8" stroke-linecap="square" />
  <line class="wall exterior" x1="0" y1="0" x2="20" y2="0" stroke="black" stroke-width="0.8" stroke-linecap="square" />
  <line class="wall exterior" x1="0" y1="20" x2="20" y2="20" stroke="black" stroke-width="0.8" stroke-linecap="square" />
  <line class="wall exterior" x1="20" y1="0" x2="20" y2="20" stroke="black" stroke-width="0.8" stroke-linecap="square" />
  <text data-room="a" x="5" y="15" text-anchor="middle" dominant-baseline="central" font-size="6" fill="#333333">1</text>
  <text data-room="b" x="15" y="10" text-anchor="middle" dominant-baseline="central" font-size="6" fill="#333333">3</text>
  <text data-room="r" x="5" y="5" text-anchor="middle" dominant-baseline="central" font-size="6" fill="#333333">2</text>
  <line class="door" x1="0" y1="10" x2="5" y2="10" stroke="black" stroke-width="1.5" />
  <line class="door" x1="10" y1="0" x2="10" y2="5" stroke="black" stroke-width="1.5" />
  <line class="door" x1="10" y1="10" x2="10" y2="15" stroke="black" stroke-width="1.5" />
  <g class="scale" font-size="5" fill="#333333">
    <text x="-1.235" y="29">0</text>
    <text x="7.438" y="29">10</text>
    <text x="15.206" y="29">20 ft</text>
    <text x="-2.727" y="38">5-ft squares</text>
    <rect x="0" y="30.5" width="10" height="1.5" fill="black" stroke="black" stroke-width="0.2" />
    <rect x="10" y="30.5" width="10" height="1.5" fill="#e0e0e0" stroke="black" stroke-width="0.2" />
  </g>
  <g class="key" font-size="5" fill="#333333"><text x="-5.227" y="50">1</text>
    <text x="-1.21" y="50">Down room</text>
  </g>
  <g class="key" font-size="5" fill="#333333"><text x="-5.479" y="58">2</text>
    <text x="-1.257" y="58">Root room</text>
  </g>
  <g class="key" font-size="5" fill="#333333"><text x="-5.454" y="66">3</text>
    <text x="-1.284" y="66">Span room</text>
  </g>
</svg>