<svg xmlns="http://www.w3.org/2000/svg" width="1350" height="1930" viewBox="-40 -40 135 193">
  <rect x="-40" y="-40" width="135" height="193" fill="white" />
  <g stroke="#bbb" stroke-width="0.15">
    <line x1="-30" y1="-30" x2="-30" y2="45" />
    <line x1="-25" y1="-30" x2="-25" y2="45" />
    <line x1="-20" y1="-30" x2="-20" y2="45" />
    <line x1="-15" y1="-30" x2="-15" y2="45" />
    <line x1="-10" y1="-30" x2="-10" y2="45" />
    <line x1="-5" y1="-30" x2="-5" y2="45" />
    <line x1="0" y1="-30" x2="0" y2="45" />
    <line x1="5" y1="-30" x2="5" y2="45" />
    <line x1="10" y1="-30" x2="10" y2="45" />
    <line x1="15" y1="-30" x2="15" y2="45" />
    <line x1="20" y1="-30" x2="20" y2="45" />
    <line x1="25" y1="-30" x2="25" y2="45" />
    <line x1="30" y1="-30" x2="30" y2="45" />
    <line x1="35" y1="-30" x2="35" y2="45" />
    <line x1="40" y1="-30" x2="40" y2="45" />
    <line x1="45" y1="-30" x2="45" y2="45" />
    <line x1="50" y1="-30" x2="50" y2="45" />
    <line x1="55" y1="-30" x2="55" y2="45" />
    <line x1="60" y1="-30" x2="60" y2="45" />
    <line x1="65" y1="-30" x2="65" y2="45" />
    <line x1="70" y1="-30" x2="70" y2="45" />
    <line x1="75" y1="-30" x2="75" y2="45" />
    <line x1="80" y1="-30" x2="80" y2="45" />
    <line x1="85" y1="-30" x2="85" y2="45" />
    <line x1="-30" y1="-30" x2="85" y2="-30" />
    <line x1="-30" y1="-25" x2="85" y2="-25" />
    <line x1="-30" y1="-20" x2="85" y2="-20" />
    <line x1="-30" y1="-15" x2="85" y2="-15" />
    <line x1="-30" y1="-10" x2="85" y2="-10" />
    <line x1="-30" y1="-5" x2="85" y2="-5" />
    <line x1="-30" y1="0" x2="85" y2="0" />
    <line x1="-30" y1="5" x2="85" y2="5" />
    <line x1="-30" y1="10" x2="85" y2="10" />
    <line x1="-30" y1="15" x2="85" y2="15" />
    <line x1="-30" y1="20" x2="85" y2="20" />
    <line x1="-30" y1="25" x2="85" y2="25" />
    <line x1="-30" y1="30" x2="85" y2="30" />
    <line x1="-30" y1="35" x2="85" y2="35" />
    <line x1="-30" y1="40" x2="85" y2="40" />
    <line x1="-30" y1="45" x2="85" y2="45" />
  </g>
  <rect data-room="entrance" x="0" y="0" width="20" height="20" fill="none" stroke="black" stroke-width="0.5" />
  <text data-room="entrance" x="10" y="10" text-anchor="middle" dominant-baseline="central" font-size="12">E</text>
  <rect data-room="hall" x="0" y="-30" width="40" height="30" fill="none" stroke="black" stroke-width="0.5" />
  <text data-room="hall" x="20" y="-15" text-anchor="middle" dominant-baseline="central" font-size="18">H</text>
  <rect data-room="library" x="-30" y="-30" width="30" height="30" fill="none" stroke="black" stroke-width="0.5" />
  <text data-room="library" x="-15" y="-15" text-anchor="middle" dominant-baseline="central" font-size="18">L</text>
  <rect data-room="dining" x="40" y="-30" width="30" height="30" fill="none" stroke="black" stroke-width="0.5" />
  <text data-room="dining" x="55" y="-15" text-anchor="middle" dominant-baseline="central" font-size="18">D</text>
  <rect data-room="parlour" x="-20" y="0" width="20" height="20" fill="none" stroke="black" stroke-width="0.5" />
  <text data-room="parlour" x="-10" y="10" text-anchor="middle" dominant-baseline="central" font-size="12">P</text>
  <rect data-room="cloak" x="20" y="0" width="20" height="20" fill="none" stroke="black" stroke-width="0.5" />
  <text data-room="cloak" x="30" y="10" text-anchor="middle" dominant-baseline="central" font-size="12">C</text>
  <rect data-room="kitchen" x="40" y="0" width="30" height="25" fill="none" stroke="black" stroke-width="0.5" />
  <text data-room="kitchen" x="55" y="12.5" text-anchor="middle" dominant-baseline="central" font-size="15">K</text>
  <rect data-room="pantry" x="70" y="0" width="15" height="25" fill="none" stroke="black" stroke-width="0.5" />
  <text data-room="pantry" x="77.5" y="12.5" text-anchor="middle" dominant-baseline="central" font-size="9">A</text>
  <rect data-room="study" x="-20" y="20" width="20" height="20" fill="none" stroke="black" stroke-width="0.5" />
  <text data-room="study" x="-10" y="30" text-anchor="middle" dominant-baseline="central" font-size="12">S</text>
  <rect data-room="scullery" x="40" y="25" width="30" height="20" fill="none" stroke="black" stroke-width="0.5" />
  <text data-room="scullery" x="55" y="35" text-anchor="middle" dominant-baseline="central" font-size="12">U</text>
  <text class="scale" x="-30" y="63" font-size="6">1 square = 5 ft</text>
  <text class="key" x="-30" y="71" font-size="6">E  Entrance Hall  (20x20 ft)</text>
  <text class="key" x="-30" y="79" font-size="6">H  Great Hall  (40x30 ft)</text>
  <text class="key" x="-30" y="87" font-size="6">L  Library  (30x30 ft)</text>
  <text class="key" x="-30" y="95" font-size="6">D  Dining Room  (30x30 ft)</text>
  <text class="key" x="-30" y="103" font-size="6">P  Parlour  (20x20 ft)</text>
  <text class="key" x="-30" y="111" font-size="6">C  Cloakroom  (20x20 ft)</text>
  <text class="key" x="-30" y="119" font-size="6">K  Kitchen  (30x25 ft)</text>
  <text class="key" x="-30" y="127" font-size="6">A  Pantry  (15x25 ft)</text>
  <text class="key" x="-30" y="135" font-size="6">S  Study  (20x20 ft)</text>
  <text class="key" x="-30" y="143" font-size="6">U  Scullery  (30x20 ft)</text>
</svg>